<mxfile host="app.diagrams.net" modified="2024-04-12T13:29:14.142Z" agent="Mozilla/5.0 (Windows NT 10.0; Win64; x64; rv:124.0) Gecko/20100101 Firefox/124.0" etag="_uNwV-PKke-_SsCr4sCX" version="24.2.2" type="github">
  <diagram id="OwrKJrgg1d9glMkYioNr" name="第 1 页">
    <mxGraphModel dx="3274" dy="1106" grid="1" gridSize="10" guides="1" tooltips="1" connect="1" arrows="1" fold="1" page="0" pageScale="1" pageWidth="827" pageHeight="1169" background="none" math="0" shadow="0">
      <root>
        <mxCell id="0" />
        <mxCell id="1" parent="0" />
        <mxCell id="QPYarHML5cugGcIrPuqS-11" value="" style="edgeStyle=none;rounded=0;orthogonalLoop=1;jettySize=auto;html=1;strokeColor=default;align=center;verticalAlign=middle;fontFamily=Helvetica;fontSize=11;fontColor=default;labelBackgroundColor=default;endArrow=classic;" edge="1" parent="1" source="node0" target="QPYarHML5cugGcIrPuqS-3">
          <mxGeometry relative="1" as="geometry" />
        </mxCell>
        <mxCell id="node0" value="&lt;p style=&quot;margin:0px;margin-top:4px;text-align:center;&quot;&gt;&lt;i&gt;&amp;lt;&amp;lt;interface&amp;gt;&amp;gt;&lt;/i&gt;&lt;br/&gt;&lt;b&gt;OrderMapper&lt;/b&gt;&lt;/p&gt;&lt;hr size=&quot;1&quot;/&gt;&lt;p style=&quot;margin:0 0 0 4px;line-height:1.6;&quot;&gt;+ selectByUserId(int): List&amp;lt;Map&amp;lt;String, Object&amp;gt;&amp;gt;&lt;br/&gt;+ selectByOrderNo(String): Map&amp;lt;String, Object&amp;gt;&lt;br/&gt;+ payOrder(String): void&lt;br/&gt;+ receiveOrder(String): boolean&lt;/p&gt;" style="verticalAlign=top;align=left;overflow=fill;fontSize=14;fontFamily=Helvetica;html=1;rounded=0;shadow=0;comic=0;labelBackgroundColor=none;strokeWidth=1;" parent="1" vertex="1">
          <mxGeometry x="-121.5" y="320" width="343" height="171" as="geometry" />
        </mxCell>
        <mxCell id="QPYarHML5cugGcIrPuqS-8" style="edgeStyle=none;rounded=0;orthogonalLoop=1;jettySize=auto;html=1;exitX=0;exitY=0.5;exitDx=0;exitDy=0;entryX=1;entryY=0.5;entryDx=0;entryDy=0;dashed=1;strokeColor=default;align=center;verticalAlign=middle;fontFamily=Helvetica;fontSize=11;fontColor=default;labelBackgroundColor=default;endArrow=classic;" edge="1" parent="1" source="QPYarHML5cugGcIrPuqS-1" target="QPYarHML5cugGcIrPuqS-6">
          <mxGeometry relative="1" as="geometry" />
        </mxCell>
        <mxCell id="QPYarHML5cugGcIrPuqS-9" style="edgeStyle=none;rounded=0;orthogonalLoop=1;jettySize=auto;html=1;exitX=0;exitY=0.5;exitDx=0;exitDy=0;entryX=1;entryY=0.5;entryDx=0;entryDy=0;dashed=1;strokeColor=default;align=center;verticalAlign=middle;fontFamily=Helvetica;fontSize=11;fontColor=default;labelBackgroundColor=default;endArrow=classic;" edge="1" parent="1" source="QPYarHML5cugGcIrPuqS-1" target="QPYarHML5cugGcIrPuqS-5">
          <mxGeometry relative="1" as="geometry" />
        </mxCell>
        <mxCell id="QPYarHML5cugGcIrPuqS-1" value="&lt;p style=&quot;margin:0px;margin-top:4px;text-align:center;&quot;&gt;&lt;b&gt;Order&lt;/b&gt;&lt;/p&gt;&lt;hr size=&quot;1&quot;/&gt;&lt;p style=&quot;margin:0 0 0 4px;line-height:1.6;&quot;&gt;- id: Long&lt;br/&gt;- createTime: String&lt;br/&gt;- userId: int&lt;br/&gt;- linkUser: String&lt;br/&gt;- linkAddress: String&lt;br/&gt;- cartId: Long&lt;br/&gt;- goods: String&lt;br/&gt;- state: String&lt;br/&gt;- orderNo: String&lt;br/&gt;- totalPrice: BigDecimal&lt;br/&gt;- linkPhone: String&lt;/p&gt;" style="verticalAlign=top;align=left;overflow=fill;fontSize=14;fontFamily=Helvetica;html=1;rounded=0;shadow=0;comic=0;labelBackgroundColor=none;strokeWidth=1;" vertex="1" parent="1">
          <mxGeometry x="-560" y="559" width="178" height="305" as="geometry" />
        </mxCell>
        <mxCell id="QPYarHML5cugGcIrPuqS-2" value="&lt;p style=&quot;margin:0px;margin-top:4px;text-align:center;&quot;&gt;&lt;b&gt;OrderController&lt;/b&gt;&lt;/p&gt;&lt;hr size=&quot;1&quot;/&gt;&lt;p style=&quot;margin:0 0 0 4px;line-height:1.6;&quot;&gt;+ findPage(Integer, Integer, String, String): R&amp;lt;IPage&amp;lt;Order&amp;gt;&amp;gt;&lt;br/&gt;+ payOrder(String): R&amp;lt;Void&amp;gt;&lt;br/&gt;+ findAllOrder(): R&amp;lt;List&amp;lt;Order&amp;gt;&amp;gt;&lt;br/&gt;+ findOrder(Integer): R&amp;lt;List&amp;lt;Map&amp;lt;String, Object&amp;gt;&amp;gt;&amp;gt;&lt;br/&gt;+ selectByOrderNo(String): R&amp;lt;Map&amp;lt;String, Object&amp;gt;&amp;gt;&lt;br/&gt;+ receiveOrder(String): R&amp;lt;Void&amp;gt;&lt;br/&gt;+ delete(Long): R&amp;lt;Void&amp;gt;&lt;br/&gt;+ delivery(String): R&amp;lt;Void&amp;gt;&lt;br/&gt;+ save(Order): R&amp;lt;String&amp;gt;&lt;br/&gt;+ update(Order): R&amp;lt;Void&amp;gt;&lt;/p&gt;" style="verticalAlign=top;align=left;overflow=fill;fontSize=14;fontFamily=Helvetica;html=1;rounded=0;shadow=0;comic=0;labelBackgroundColor=none;strokeWidth=1;" vertex="1" parent="1">
          <mxGeometry x="-160" y="900" width="420" height="281" as="geometry" />
        </mxCell>
        <mxCell id="QPYarHML5cugGcIrPuqS-7" style="rounded=0;orthogonalLoop=1;jettySize=auto;html=1;exitX=0;exitY=0.5;exitDx=0;exitDy=0;entryX=1;entryY=0.5;entryDx=0;entryDy=0;dashed=1;" edge="1" parent="1" source="QPYarHML5cugGcIrPuqS-3" target="QPYarHML5cugGcIrPuqS-1">
          <mxGeometry relative="1" as="geometry" />
        </mxCell>
        <mxCell id="QPYarHML5cugGcIrPuqS-10" value="" style="edgeStyle=none;rounded=0;orthogonalLoop=1;jettySize=auto;html=1;strokeColor=default;align=center;verticalAlign=middle;fontFamily=Helvetica;fontSize=11;fontColor=default;labelBackgroundColor=default;endArrow=classic;" edge="1" parent="1" source="QPYarHML5cugGcIrPuqS-3" target="QPYarHML5cugGcIrPuqS-2">
          <mxGeometry relative="1" as="geometry" />
        </mxCell>
        <mxCell id="QPYarHML5cugGcIrPuqS-3" value="&lt;p style=&quot;margin:0px;margin-top:4px;text-align:center;&quot;&gt;&lt;b&gt;OrderService&lt;/b&gt;&lt;/p&gt;&lt;hr size=&quot;1&quot;/&gt;&lt;p style=&quot;margin:0 0 0 4px;line-height:1.6;&quot;&gt;+ selectByUserId(int): List&amp;lt;Map&amp;lt;String, Object&amp;gt;&amp;gt;&lt;br/&gt;+ receiveOrder(String): boolean&lt;br/&gt;+ selectByPage(Integer, Integer, String, String): IPage&amp;lt;Order&amp;gt;&lt;br/&gt;+ delivery(String): void&lt;br/&gt;+ selectByOrderNo(String): Map&amp;lt;String, Object&amp;gt;&lt;br/&gt;+ saveOrder(Order): String&lt;br/&gt;+ payOrder(String): void&lt;/p&gt;" style="verticalAlign=top;align=left;overflow=fill;fontSize=14;fontFamily=Helvetica;html=1;rounded=0;shadow=0;comic=0;labelBackgroundColor=none;strokeWidth=1;" vertex="1" parent="1">
          <mxGeometry x="-154" y="590" width="408" height="209" as="geometry" />
        </mxCell>
        <mxCell id="QPYarHML5cugGcIrPuqS-5" value="&lt;p style=&quot;margin:0px;margin-top:4px;text-align:center;&quot;&gt;&lt;b&gt;User&lt;/b&gt;&lt;/p&gt;&lt;hr size=&quot;1&quot;/&gt;&lt;p style=&quot;margin:0 0 0 4px;line-height:1.6;&quot;&gt;- role: String&lt;br/&gt;- username: String&lt;br/&gt;- phone: String&lt;br/&gt;- id: Integer&lt;br/&gt;- email: String&lt;br/&gt;- address: String&lt;br/&gt;- password: String&lt;br/&gt;- nickname: String&lt;br/&gt;- avatarUrl: String&lt;/p&gt;" style="verticalAlign=top;align=left;overflow=fill;fontSize=14;fontFamily=Helvetica;html=1;rounded=0;shadow=0;comic=0;labelBackgroundColor=none;strokeWidth=1;" vertex="1" parent="1">
          <mxGeometry x="-800" y="850" width="149" height="257" as="geometry" />
        </mxCell>
        <mxCell id="QPYarHML5cugGcIrPuqS-6" value="&lt;p style=&quot;margin:0px;margin-top:4px;text-align:center;&quot;&gt;&lt;b&gt;Good&lt;/b&gt;&lt;/p&gt;&lt;hr size=&quot;1&quot;/&gt;&lt;p style=&quot;margin:0 0 0 4px;line-height:1.6;&quot;&gt;- name: String&lt;br/&gt;- description: String&lt;br/&gt;- saleMoney: BigDecimal&lt;br/&gt;- recommend: Boolean&lt;br/&gt;- categoryId: Long&lt;br/&gt;- id: Long&lt;br/&gt;- discount: Double&lt;br/&gt;- price: BigDecimal&lt;br/&gt;- isDelete: Boolean&lt;br/&gt;- sales: Integer&lt;br/&gt;- imgs: String&lt;br/&gt;- createTime: String&lt;/p&gt;" style="verticalAlign=top;align=left;overflow=fill;fontSize=14;fontFamily=Helvetica;html=1;rounded=0;shadow=0;comic=0;labelBackgroundColor=none;strokeWidth=1;" vertex="1" parent="1">
          <mxGeometry x="-818.5" y="261" width="186" height="329" as="geometry" />
        </mxCell>
      </root>
    </mxGraphModel>
  </diagram>
</mxfile>
